<?xml version="1.0" encoding="iso-8859-1"?>
<!-- Generator: Adobe Illustrator 21.1.0, SVG Export Plug-In . SVG Version: 6.00 Build 0)  -->
<svg version="1.1" id="artwork" xmlns="http://www.w3.org/2000/svg" xmlns:xlink="http://www.w3.org/1999/xlink" x="0px" y="0px"
	 width="191.051px" height="59.2571px" viewBox="0 0 191.051 59.2571" enable-background="new 0 0 191.051 59.2571"
	 xml:space="preserve">
<g>
	<g>
		<g>
			<path d="M59.2528,16.413c-0.0035-0.596-0.0101-1.1916-0.0265-1.7882c-0.0347-1.2979-0.1115-2.6075-0.3422-3.8915
				c-0.2341-1.3039-0.6167-2.5164-1.2198-3.701c-0.5919-1.1633-1.3658-2.2277-2.289-3.1509
				c-0.9229-0.9231-1.9874-1.6968-3.1512-2.2891c-1.1835-0.6024-2.3962-0.9849-3.6989-1.219
				c-1.2847-0.2314-2.5944-0.3076-3.8932-0.3427c-0.5963-0.0162-1.1921-0.0229-1.7883-0.0266C42.1363,0,41.4282,0,40.7207,0H25.0347
				h-6.4984c-0.7081,0-1.4154,0-2.1228,0.004c-0.5963,0.0037-1.1928,0.0104-1.7883,0.0266c-0.3246,0.0088-0.65,0.0201-0.9756,0.0358
				C12.673,0.1136,11.695,0.1998,10.732,0.3733C9.7549,0.5489,8.8284,0.808,7.927,1.1806C7.6265,1.3049,7.3288,1.4417,7.0329,1.5923
				C6.16,2.0365,5.3428,2.5828,4.5996,3.2176c-0.2478,0.2116-0.4873,0.433-0.718,0.6638C2.9583,4.8046,2.1844,5.869,1.5925,7.0323
				c-0.6031,1.1845-0.9852,2.397-1.2195,3.701c-0.2305,1.284-0.3071,2.5937-0.342,3.8915
				c-0.0164,0.5966-0.0233,1.1923-0.0272,1.7882C-0.0006,17.1207,0,17.8286,0,18.5362v9.66v12.5242
				c0,0.7083-0.0007,1.4155,0.0039,2.1238c0.0039,0.596,0.0108,1.1916,0.0272,1.7872c0.0349,1.2985,0.1115,2.6085,0.342,3.8919
				c0.2343,1.3036,0.6164,2.5171,1.2195,3.7013c0.5919,1.1636,1.3658,2.2277,2.2891,3.1505
				c0.9226,0.9235,1.9874,1.6972,3.1513,2.2898c1.1837,0.6024,2.3962,0.9845,3.6993,1.2186
				c1.2839,0.2311,2.5945,0.3079,3.8931,0.3427c0.5955,0.0159,1.1919,0.0229,1.7883,0.0263
				c0.7074,0.0051,1.4147,0.0044,2.1228,0.0044h22.1844c0.7074,0,1.4155,0.0007,2.123-0.0044
				c0.5961-0.0034,1.1919-0.0105,1.7883-0.0263c1.2988-0.0347,2.6085-0.1116,3.8932-0.3427
				c1.3027-0.2341,2.5154-0.6162,3.6989-1.2186c1.1638-0.5926,2.2283-1.3663,3.1512-2.2898c0.9232-0.9228,1.697-1.9869,2.289-3.1505
				c0.6031-1.1842,0.9857-2.3977,1.2198-3.7013c0.2307-1.2834,0.3075-2.5933,0.3422-3.8919
				c0.0164-0.5956,0.023-1.1913,0.0265-1.7872c0.0046-0.7083,0.0042-1.4155,0.0042-2.1238V18.5362
				C59.257,17.8286,59.2573,17.1207,59.2528,16.413z"/>
			<path fill="#FFFFFF" d="M46.9545,36.5781c-0.0014-0.0018-0.0027-0.003-0.0041-0.0048c0.0656-0.2231,0.1332-0.4448,0.1906-0.6735
				c2.4595-9.7987-3.5431-21.3836-13.7006-27.4833c4.4512,6.0343,6.4194,13.3431,4.6708,19.7349
				c-0.156,0.5701-0.3435,1.1173-0.5507,1.6491c-0.2249-0.1477-0.5083-0.3155-0.8888-0.5253c0,0-10.1041-6.2386-21.0552-17.2732
				c-0.2874-0.2897,5.8396,8.7572,12.793,16.1035c-3.276-1.8386-12.4058-8.4813-18.1855-13.7712
				c0.7101,1.1842,1.5547,2.3245,2.4831,3.4224c4.8266,6.1211,11.121,13.6735,18.6622,19.4729
				c-5.2985,3.2424-12.7853,3.4946-20.2395,0.0033c-1.8437-0.8641-3.5771-1.9066-5.1815-3.0912
				c3.1554,5.0471,8.0151,9.4017,13.9298,11.9438c7.0535,3.0312,14.0678,2.8257,19.292,0.0497l-0.0041,0.006
				c0.0239-0.0151,0.0541-0.0315,0.0789-0.0468c0.2145-0.1153,0.4274-0.2327,0.6357-0.3568
				c2.5101-1.3029,7.4678-2.6246,10.1289,2.553C50.6611,49.5579,52.0459,42.8427,46.9545,36.5781z"/>
		</g>
	</g>
	<g id="XMLID_11_">
		<g>
			<path d="M81.7959,38.5423c0.464,4.1203,4.3938,6.8217,9.8514,6.8217c5.1854,0,8.9239-2.7014,8.9239-6.4393
				c0-3.2203-2.2648-5.186-7.4776-6.4953l-5.0484-1.2825c-7.259-1.8013-10.5341-5.0764-10.5341-10.4792
				c0-6.6585,5.8127-11.2709,14.0819-11.2709c8.0226,0,13.7263,4.6392,13.9175,11.3257h-5.3212
				c-0.4098-4.0935-3.7391-6.6049-8.7327-6.6049c-4.94,0-8.3783,2.5382-8.3783,6.2493c0,2.8926,2.129,4.6124,7.3686,5.9497
				l4.2025,1.0913c8.1323,1.9926,11.4615,5.158,11.4615,10.8617c0,7.259-5.7585,11.8166-14.9278,11.8166
				c-8.5141,0-14.3268-4.5308-14.7634-11.5437H81.7959z"/>
			<path d="M139.9141,49.4308h-5.3492l-6.2493-21.777h-0.109l-6.2219,21.777h-5.3486l-7.9142-28.5183h5.1848l5.5124,22.8963h0.1096
				l6.2219-22.8963h5.021l6.2767,22.8963h0.1096l5.5125-22.8963h5.13L139.9141,49.4308z"/>
			<path d="M151.2544,13.2442c0-1.7185,1.4195-3.1106,3.1387-3.1106c1.7465,0,3.1655,1.3921,3.1655,3.1106
				c0,1.7197-1.4189,3.1387-3.1655,3.1387C152.674,16.3829,151.2544,14.964,151.2544,13.2442z M151.8007,20.9125h5.2122v28.5183
				h-5.2122V20.9125z"/>
			<path d="M191.051,25.1156v-4.2032h-5.5125v-6.8217h-5.1854v6.8217h-4.2299h-5.7335v-2.5102
				c0.0268-2.5382,1.0096-3.6027,3.3567-3.6027c0.7636,0,1.5279,0.0828,2.1558,0.1912v-4.0935
				c-0.9281-0.1364-1.774-0.218-2.7562-0.218c-5.5673,0-7.9142,2.3202-7.9142,7.6414v2.5918h-3.9839v4.2032h3.9839v24.3151h5.1848
				V25.1156h5.7067h4.2299v16.8381c0,5.5125,2.1016,7.6402,7.5592,7.6402c1.1735,0,2.5108-0.0816,3.1113-0.218v-4.2567
				c-0.355,0.0548-1.3922,0.1364-1.9651,0.1364c-2.4286,0-3.5199-1.1461-3.5199-3.7111V25.1156H191.051z"/>
		</g>
	</g>
</g>
<g>
</g>
<g>
</g>
<g>
</g>
<g>
</g>
<g>
</g>
<g>
</g>
</svg>
